<svg xmlns="http://www.w3.org/2000/svg" data-name="Capa 1" viewBox="0 0 106.69 110.73"><g data-name="Capa 2"><path class="cls-1" d="M40.74 110.36H6.19l-2-29.47h40.62a10.74 10.74 0 0 0-4.07 10.16ZM96.52 110.36H55.74a4 4 0 0 1-4-4v-6.16h48.78v6.16a4 4 0 0 1-4 4ZM46.21 86.29c-.43-8.52 11.22-15.5 25.65-15.5s26.08 7 25.66 15.49ZM33.53 75.87h-9.14V53.78a1.28 1.28 0 0 1 1.28-1.28h6.58a1.28 1.28 0 0 1 1.28 1.28ZM43.69 76.89l-5.46-1.43L45.82 60l6 3.22a1 1 0 0 1 .37 1.37Z"/><path d="M105.17 108.39H1.52a1.53 1.53 0 0 1 0-3h103.65a1.53 1.53 0 0 1 0 3Z"/><path d="M91.27 108.39H51a6.29 6.29 0 0 1-6.27-6.27V96.7a1.52 1.52 0 0 1 1.52-1.52H69.6a1.53 1.53 0 1 1 0 3H47.76v3.89a3.22 3.22 0 0 0 3.17 3.27h40.34a3.23 3.23 0 0 0 3.23-3.22v-3.89h-6.61a1.53 1.53 0 0 1 0-3H96a1.53 1.53 0 0 1 1.53 1.52v5.42a6.29 6.29 0 0 1-6.26 6.22Z"/><path d="M54.36 98.23h-3.17a6.49 6.49 0 0 1-6.48-6.48v-.25a6.5 6.5 0 0 1 6.48-6.5h4.19a1.53 1.53 0 0 1 0 3h-4.19a3.45 3.45 0 0 0-3.43 3.43v.25a3.45 3.45 0 0 0 3.43 3.43h3.17a1.53 1.53 0 1 1 0 3ZM91.07 98.23h-3.18a1.53 1.53 0 0 1 0-3h3.18a3.45 3.45 0 0 0 3.43-3.43v-.3a3.45 3.45 0 0 0-3.43-3.43h-2.16a1.53 1.53 0 0 1 0-3h2.16a6.49 6.49 0 0 1 6.48 6.48v.25a6.49 6.49 0 0 1-6.48 6.43Z"/><path d="M79.76 99.24a1.56 1.56 0 0 1-.84-.25l-9.15-6.1a1.52 1.52 0 0 1 1.7-2.53l7.9 5.27 6.26-8.95a1.53 1.53 0 0 1 2.5 1.75L81 98.59a1.49 1.49 0 0 1-1.24.65Z"/><path d="M46.1 88.07a1.51 1.51 0 0 1-1.52-1.45c-.2-4 1.85-7.81 5.76-10.84a1.52 1.52 0 0 1 1.86 2.41C50.3 79.66 48.11 82 47.69 85H95.6a1.55 1.55 0 0 1 1.18.51 1.52 1.52 0 0 1-.13 2.15c-.44.39-.44.39-8.76.39ZM11.83 106.75a1.55 1.55 0 0 1-1.52-1.39l-2.7-28.84A1.5 1.5 0 0 1 8 75.36a1.52 1.52 0 0 1 1.13-.5H44.2a1.53 1.53 0 1 1 0 3H10.8L13.35 105a1.54 1.54 0 0 1-1.35 1.74h-.19Z"/><path d="M38.89 76.16a1.48 1.48 0 0 1-.59-.16 1.51 1.51 0 0 1-.82-2l9.75-23.28-4.77-1.49-3.06 8.26a1.53 1.53 0 1 1-2.95-.83l.09-.23 3.58-9.57a1.52 1.52 0 0 1 1.88-.92l7.75 2.42a1.51 1.51 0 0 1 .92.81 1.55 1.55 0 0 1 0 1.23L40.3 75.23a1.54 1.54 0 0 1-1.41.93ZM18.8 76.89a1.53 1.53 0 0 1-1.53-1.52v-31.5a1.54 1.54 0 0 1 1.53-1.53h8.13a1.52 1.52 0 0 1 1.52 1.52V49a1.53 1.53 0 0 1-3.05 0v-3.61h-5.08v30a1.52 1.52 0 0 1-1.52 1.5ZM12.7 76.89a1.51 1.51 0 0 1-1.42-1L3.15 54.57a1.53 1.53 0 0 1 .57-1.81l6.36-4.27a1.52 1.52 0 0 1 2.11.41 1.71 1.71 0 0 1 .13.23l2.79 6.31a1.53 1.53 0 0 1-2.79 1.24L10.27 52l-3.84 2.62 7.7 20.2a1.53 1.53 0 0 1-.86 2 1.41 1.41 0 0 1-.57.07ZM87 70.4h-.18a1.52 1.52 0 0 1-1.33-1.7l3.25-27.35a1.52 1.52 0 0 1 3 .36L88.5 69.05A1.53 1.53 0 0 1 87 70.4Z"/><path d="M94 42.34H41.15a1.52 1.52 0 0 1-1.52-1.52v-9.15a1.52 1.52 0 0 1 1.52-1.52h10.16a1.53 1.53 0 0 1 .25 3.05h-8.88v6.09h49.79V33.2h-34a1.53 1.53 0 1 1-.25-3.05H94a1.53 1.53 0 0 1 1.53 1.52v9.15A1.53 1.53 0 0 1 94 42.34Z"/><path d="M89.93 32.18a1.53 1.53 0 0 1-1.53-1.52v-3.05a2.46 2.46 0 0 0-2.4-2.54H49.28a2.46 2.46 0 0 0-2.54 2.38v3.21a1.53 1.53 0 0 1-3.05 0v-3.05A5.54 5.54 0 0 1 49.14 22h36.72a5.52 5.52 0 0 1 5.59 5.45v3.19A1.52 1.52 0 0 1 90 32.18Z"/><path d="M65.81 23.78a1.4 1.4 0 0 1-.41-.06 1.52 1.52 0 0 1-1.07-1.85l4.5-16.23a1.52 1.52 0 0 1 1-1L83.35.08a1.51 1.51 0 0 1 1.92 1 1.61 1.61 0 0 1 .08.48v5.37a1.53 1.53 0 0 1-.95 1.42l-8.28 3.31-1.66 7.21a1.54 1.54 0 0 1-3-.69l1.84-8a1.57 1.57 0 0 1 .92-1.07l8.09-3.21V3.64L71.56 7.22l-4.29 15.44a1.52 1.52 0 0 1-1.46 1.12ZM38.1 86H11.69a1.52 1.52 0 1 1-.49-3 1.35 1.35 0 0 1 .49 0H38.1a1.52 1.52 0 1 1 .49 3 1.35 1.35 0 0 1-.49 0Z"/></g></svg>