<svg xmlns="http://www.w3.org/2000/svg" data-name="Capa 1" viewBox="0 0 110.95 109.8"><g data-name="Capa 2"><path d="M21.55 104.33a1.49 1.49 0 0 1-1.21-.62L.29 76.36a1.53 1.53 0 0 1-.13-1.57A1.52 1.52 0 0 1 1.5 74h9.2V50.47a1.5 1.5 0 0 1 3 0v25A1.5 1.5 0 0 1 12.23 77H4.46l17.09 23.32L30 88.83a1.5 1.5 0 0 1 2.42 1.78l-9.61 13.1a1.49 1.49 0 0 1-1.26.62ZM38.2 77h-7a1.5 1.5 0 0 1-1.5-1.5v-12a1.5 1.5 0 0 1 3 0V74h5.5a1.5 1.5 0 0 1 0 3ZM90.11 78.28a1.5 1.5 0 0 1-1.21-2.39L106.48 52H98.2a1.5 1.5 0 0 1-1.5-1.5v-47a1.5 1.5 0 0 1 3 0V49h9.75a1.5 1.5 0 0 1 1.21 2.39L91.32 77.67a1.51 1.51 0 0 1-1.21.61ZM79.2 37a1.5 1.5 0 0 1-1.5-1.5v-25a1.5 1.5 0 0 1 3 0v25a1.5 1.5 0 0 1-1.5 1.5ZM67.2 27a1.5 1.5 0 0 1-1.5-1.5v-6a1.5 1.5 0 0 1 3 0v6a1.5 1.5 0 0 1-1.5 1.5Z"/><path class="cls-1" d="M70.74 43.87c7.36 6.55 18.17 16.82 19.45 28.37 1.68 15.77.91 26.18 0 37.18H50a42.79 42.79 0 0 0-1.28-11.55c-2.95-2.28-6.73-3.6-5.14-11.55.52-2.58 6.38-14.56 9.33-20.56 2.37-4.84 2.19-5.77 2.19-8.34 5.84 3.41 14.36-5.85 15.64-13.55Z"/><path d="M45.18 107.83a1.49 1.49 0 0 1-1.43-1.08 26.49 26.49 0 0 1-.66-4.52 24.93 24.93 0 0 0-1-6.07c-3.68-1.74-5.52-5-5.31-9.35.12-2.62 2.12-6.4 4.42-10.79 1.44-2.72 2.92-5.54 4.13-8.37 4.23-9.93 2.3-13.78 1.15-16.08-.66-1.33-1.59-3.4-1.63-3.48a1.5 1.5 0 1 1 2.65-1.4 1.3 1.3 0 0 1 .08.17s1 2.09 1.59 3.36c1.92 3.84 3.11 8.76-1.08 18.6-1.25 3-2.84 6-4.23 8.6-2 3.9-4 7.58-4.08 9.53-.16 3.3 1.14 5.47 4 6.65a1.48 1.48 0 0 1 .65.54c1.12 1.63 1.42 4.77 1.71 7.8a27.07 27.07 0 0 0 .54 4 1.5 1.5 0 0 1-1 1.87 1.67 1.67 0 0 1-.5.02ZM65.34 107.59a1.5 1.5 0 0 1-1.5-1.5c0-15.92-.21-26.83-3-33.26A13.17 13.17 0 0 1 61 62.35a11.93 11.93 0 0 1 6.64-6.71 1.5 1.5 0 1 1 1 2.83 9.11 9.11 0 0 0-4.89 5.07 10.22 10.22 0 0 0-.21 8.08c3.06 7 3.29 18.17 3.29 34.47a1.51 1.51 0 0 1-1.49 1.5ZM31.53 48.86a1.55 1.55 0 0 1-.56-.11 1.5 1.5 0 0 1-.85-1.94.14.14 0 0 1 0-.06c.89-2.22 3.85-3.38 4.44-3.59a1.5 1.5 0 0 1 1 2.82c-.91.33-2.39 1.16-2.68 1.89a1.5 1.5 0 0 1-1.35.99ZM26.53 34.06a1.5 1.5 0 1 0-.23 2.11 1.5 1.5 0 0 0 .23-2.11ZM21.57 33.14a1.5 1.5 0 0 1-.6-2.87l5.9-2.56a1.5 1.5 0 0 1 1.19 2.76L22.16 33a1.54 1.54 0 0 1-.59.14Z"/><path d="M75.23 53.51a1.55 1.55 0 0 1-.56-.11 1.51 1.51 0 0 1-.84-1.95c1-2.39 0-7.44-2.11-11.25-1.48-2.65-3.26-4.28-5-4.59C57.34 34 54.56 24.12 53.64 20.89c-1-3.51-5.88-14-15.27-17-8-2.59-18.32.68-23.92 7.61A23.11 23.11 0 0 0 10 28.79c.49 2.76 1.6 4.79 3.13 5.71a1.5 1.5 0 1 1-1.55 2.57C9.3 35.68 7.73 33 7.08 29.31a25.94 25.94 0 0 1 5-19.72C18.45 1.75 30.13-1.94 39.29 1 50 4.47 55.34 15.88 56.51 20c.89 3.16 3.2 11.35 10.71 12.67 2.66.46 5.19 2.63 7.12 6.08 2.59 4.65 3.57 10.6 2.28 13.83a1.5 1.5 0 0 1-1.39.93Z"/><path d="M84.8 108a.81.81 0 0 1-.22 0 1.49 1.49 0 0 1-1.26-1.69c.76-5 4.09-30.78-4.86-46.16a46.1 46.1 0 0 0-15.24-16.44 1.5 1.5 0 0 1 1.55-2.57l.09.06a49 49 0 0 1 16.2 17.36c9.45 16.25 6 42.93 5.23 48.12A1.51 1.51 0 0 1 84.8 108Z"/><path d="M60 43.62c-6.44 0-14.56-2.3-17.68-11.73a1.5 1.5 0 1 1 2.8-.89c4.54 13.73 21 8.85 21.15 8.8a1.5 1.5 0 0 1 1.09 2.8h-.17A24.65 24.65 0 0 1 60 43.62Z"/><path d="M37.72 54.59c-2.56 0-3.9-2.14-4.76-3.49a6 6 0 0 0-1-1.3A16.46 16.46 0 0 0 29 48.37c-.82-.36-1.73-.75-2.71-1.22a10.56 10.56 0 0 1-3.81.68c-1.65-.18-2-2-2.38-4.28-.3-1.71-.72-4.07-1.61-5.19l-.49-.63c-2-2.5-4.28-5.32-5.06-9A1.3 1.3 0 0 1 13 28c.12-.36 3-8.88 10-9.84 2.58-.35 4.72.67 6.61 1.58 2.52 1.2 3.52 1.53 4.72.36 2-2.36 4.44-2.86 6.85-1.41s3.26 4.9 2.21 7.9a1.5 1.5 0 0 1-2.83-1c.67-1.94-.08-3.84-.93-4.34s-1.68-.8-3 .83l-.09.09c-2.82 2.82-5.79 1.41-8.18.27-1.65-.8-3.22-1.54-4.9-1.31C19 21.67 16.6 27 16 28.49c.72 2.82 2.57 5.12 4.37 7.35l.52.65c1.37 1.72 1.84 4.39 2.22 6.54.11.57.24 1.29.36 1.78a15.77 15.77 0 0 0 2.53-.69 1.52 1.52 0 0 1 1.2.07c1.1.56 2.17 1 3.11 1.42a16.92 16.92 0 0 1 3.49 1.79 7.34 7.34 0 0 1 1.7 2.1c1.15 1.83 1.67 2.31 2.84 2 1.45-.38 5.51-2.83 6.23-5.07a1.5 1.5 0 0 1 2.86.92c-1.18 3.66-6.49 6.56-8.31 7a5.48 5.48 0 0 1-1.4.24Z"/></g></svg>