<svg xmlns="http://www.w3.org/2000/svg" data-name="Capa 1" viewBox="0 0 106.82 119.94"><g data-name="Capa 2"><path d="M68.32 53.71a6 6 0 1 1 6-6 5.91 5.91 0 0 1-.2 1.51 6 6 0 0 1-5.8 4.49Zm0-9a3 3 0 1 0 .76.09 3.22 3.22 0 0 0-.76-.08Z"/><path d="M73.05 61.27h-.38L51.11 55.6a3.47 3.47 0 0 1-2.51-4.22L53 34.51A3.49 3.49 0 0 1 57.25 32l6.61 1.72.23-.9a3.51 3.51 0 0 1 4.27-2.5l7.55 2a3.51 3.51 0 0 1 2.51 4.26l-.24.9 3.78 1a1.5 1.5 0 0 1-.76 2.9l-3.85-1a3 3 0 0 1-2.09-3.6l.25-1a.49.49 0 0 0-.35-.6l-7.56-2a.56.56 0 0 0-.38 0 .5.5 0 0 0-.22.31l-.26 1a2.93 2.93 0 0 1-3.56 2.09l-6.68-1.67a.49.49 0 0 0-.6.35L51.51 52.1a.44.44 0 0 0 .05.37.48.48 0 0 0 .31.23l21.56 5.62a1.5 1.5 0 0 1-.38 3Z"/><path d="M60.78 42.21a1.34 1.34 0 0 1-.4-.06l-1.93-.53a1.5 1.5 0 0 1 .79-2.89l1.93.53a1.51 1.51 0 0 1-.39 3Z"/><path class="cls-1" d="M100.71 16.58 63.88 7.07A4 4 0 0 0 59 9.91l-.91 3.39 44.59 11.59.91-3.39a4 4 0 0 0-2.82-4.9Z"/><path d="M37 68.17a2.54 2.54 0 0 1-.39 0 1.51 1.51 0 0 1-1.06-1.84l16.58-62A5.87 5.87 0 0 1 59.3.2l37 9.55a5.86 5.86 0 0 1 4.16 7.17l-6.88 25.53a1.5 1.5 0 0 1-2.9-.78l6.84-25.53a2.83 2.83 0 0 0-2-3.47l-37-9.55a2.87 2.87 0 0 0-2.18.28A2.79 2.79 0 0 0 55 5.12L38.43 67.06A1.5 1.5 0 0 1 37 68.17ZM40.82 90.71a31.59 31.59 0 0 1-5.14-.57c-2.52-.43-4.9-.83-6.93-.07a1.5 1.5 0 0 1-1.06-2.81c2.79-1 5.69-.55 8.49-.07a28.91 28.91 0 0 0 4.64.52c4.78 0 13.52-1.93 17.33-3.84a1.5 1.5 0 1 1 1.34 2.69c-4.2 2.1-13.44 4.15-18.67 4.15ZM14.92 59.61a1.54 1.54 0 0 1-.88-.29 1.49 1.49 0 0 1-.33-2.09c1.84-2.5 2.85-10.25 3.33-14 .1-.75.19-1.41.27-1.92.63-4.31 4.37-7.76 8.69-11.8s9.1-8.46 12.08-14.66c1.55-3.22 4.32-4.06 6.41-3.48 1.31.29 2.81 1.2 2.81 2.81a1.51 1.51 0 1 1-3 .31 2.49 2.49 0 0 0-.54-.2c-1-.29-2.21.2-3 1.86-3.2 6.71-8.26 11.41-12.76 15.56-3.92 3.65-7.31 6.8-7.79 10-.07.5-.15 1.14-.25 1.87-.77 5.92-1.78 12.47-3.89 15.35a1.48 1.48 0 0 1-1.15.68Z"/><path d="M88.78 54.25a6 6 0 0 1-6-5.26l-.06-.5a6 6 0 0 1 5.17-6.73H88l6.67-.86a6.06 6.06 0 0 1 6.74 5.21l.06.51a6 6 0 0 1-5.16 6.73l-6.66.85a4.52 4.52 0 0 1-.87.05Zm6.61-10.41H95l-6.67.85A3 3 0 0 0 85.71 48l.07.51a3 3 0 0 0 3.33 2.63l6.66-.86A3 3 0 0 0 98.45 47l-.07-.51a3 3 0 0 0-3-2.64Z"/><path d="M90 64.44h-.79l-6.64-.89a5.93 5.93 0 0 1-5.09-6.66l.06-.5a5.94 5.94 0 0 1 6.66-5.09l6.65.89a5.93 5.93 0 0 1 5.09 6.66l-.07.5A5.93 5.93 0 0 1 90 64.44ZM83.41 54.2a3 3 0 0 0-1.78.61 2.88 2.88 0 0 0-1.12 1.93l-.07.5A3 3 0 0 0 83 60.53l6.65.89a3 3 0 0 0 3.29-2.52l.07-.5a2.94 2.94 0 0 0-2.52-3.29l-6.65-.88a3.11 3.11 0 0 0-.43-.03Z"/><path d="M84.07 73.71a5.74 5.74 0 0 1-2.31-.49l-2.48-1.1a5.75 5.75 0 0 1-2.93-7.56l.2-.44a5.72 5.72 0 0 1 7.55-2.93l2.48 1.1a5.72 5.72 0 0 1 2.93 7.55l-.19.44a5.76 5.76 0 0 1-5.25 3.43Zm-2.27-10a2.86 2.86 0 0 0-1 .19 2.72 2.72 0 0 0-1.52 1.44l-.19.44a2.76 2.76 0 0 0 1.39 3.61L83 70.48a2.71 2.71 0 0 0 2.09 0A2.73 2.73 0 0 0 86.6 69l.2-.44A2.74 2.74 0 0 0 85.38 65l-2.48-1.06a2.63 2.63 0 0 0-1.1-.24ZM93.55 39.11a1.5 1.5 0 0 1-.3-3l7.36-1.5a4 4 0 0 0-1.69-7.86l-1.62.37a1.5 1.5 0 1 1-.65-2.93l1.62-.37a7 7 0 0 1 2.94 13.73l-7.36 1.5a1.53 1.53 0 0 1-.3.06Z"/><path class="cls-1" d="M19.61 98.17 27 95.43a1.87 1.87 0 0 0 1.12-2.32l-15.43-38.8a1.88 1.88 0 0 0-2.35-1.21h-.11L2.69 56a1.87 1.87 0 0 0-1.1 2.31L17.17 97a1.86 1.86 0 0 0 2.34 1.21Z"/><path d="M19 99.79a3.37 3.37 0 0 1-3.19-2.27L.2 58.9v-.09a3.37 3.37 0 0 1 2-4.18l7.55-2.89a3.38 3.38 0 0 1 4.33 2v.06l15.44 38.75v.1a3.37 3.37 0 0 1-2 4.18l-7.4 2.75a3.58 3.58 0 0 1-1.12.21ZM3 57.85l15.56 38.59v.1a.36.36 0 0 0 .49.22L26.48 94a.37.37 0 0 0 .22-.43l-15.4-38.7v-.1a.35.35 0 0 0-.19-.22.37.37 0 0 0-.29 0l-7.6 2.88a.36.36 0 0 0-.22.42Z"/><rect class="cls-2" x="56.46" y="56.52" width="10.25" height="54.07" rx="2.42" transform="rotate(-75.45 61.59 83.557)"/><path d="M80.08 91.85a3.76 3.76 0 0 1-1-.13L31.44 79.36a3.92 3.92 0 0 1-2.82-4.76L30 69.34a3.92 3.92 0 0 1 4.78-2.81l47.64 12.36a3.93 3.93 0 0 1 2.81 4.78l-1.36 5.24a3.92 3.92 0 0 1-3.79 2.94ZM33.78 69.4a.84.84 0 0 0-.46.13.87.87 0 0 0-.43.56l-1.36 5.24a.9.9 0 0 0 .1.7.89.89 0 0 0 .56.42l47.65 12.37a.9.9 0 0 0 .7-.1.89.89 0 0 0 .42-.56l1.36-5.24a.9.9 0 0 0-.09-.7.93.93 0 0 0-.57-.42L34 69.43a.83.83 0 0 0-.22-.03Z"/><path d="M86.5 91.58a4.13 4.13 0 0 1-1.11-.15L83.7 91a1.5 1.5 0 1 1 .76-2.91l1.69.44a1.41 1.41 0 0 0 1.72-1l.18-.67a1.43 1.43 0 0 0-.15-1.07 1.37 1.37 0 0 0-.87-.65l-1.69-.44a1.5 1.5 0 1 1 .76-2.91l1.69.44A4.43 4.43 0 0 1 91 87.6l-.17.67a4.45 4.45 0 0 1-4.33 3.31ZM23.63 103.72a4.41 4.41 0 0 1-4.15-2.91l-.57-1.56A1.5 1.5 0 0 1 21.66 98a1.72 1.72 0 0 1 .07.21l.57 1.56a1.37 1.37 0 0 0 .73.8 1.44 1.44 0 0 0 1.08 0l.91-.33a1.41 1.41 0 0 0 .86-1.82l-.57-1.55a1.5 1.5 0 1 1 2.75-1.21 1.72 1.72 0 0 1 .07.21l.57 1.55a4.43 4.43 0 0 1-2.7 5.7l-.91.33a4.53 4.53 0 0 1-1.46.27ZM44 119.83a3.72 3.72 0 0 1-1.19-.2l-7.05-2.34a3.8 3.8 0 0 1-2.19-1.9 3.73 3.73 0 0 1-.21-2.89l.77-2.31a3.78 3.78 0 0 1 4.78-2.39l7.09 2.34a3.8 3.8 0 0 1 2.19 1.9 3.73 3.73 0 0 1 .21 2.89l-.77 2.31a3.81 3.81 0 0 1-3.63 2.59Zm-.25-3a.8.8 0 0 0 1-.5l.76-2.31a.78.78 0 0 0 0-.6.79.79 0 0 0-.51-.42l-7-2.35a.8.8 0 0 0-1 .5l-.76 2.31a.78.78 0 0 0 0 .6.79.79 0 0 0 .45.39ZM65.19 119.94a3.79 3.79 0 0 1-3.78-3.55l-.15-2.39a3.8 3.8 0 0 1 3.54-4l7.42-.46a3.82 3.82 0 0 1 4 3.55l.15 2.42a3.8 3.8 0 0 1-3.54 4l-7.42.46Zm7.46-3.46.1 1.5-.1-1.5a.75.75 0 0 0 .54-.26.8.8 0 0 0 .2-.57l-.15-2.43a.79.79 0 0 0-.84-.73L65 113a.75.75 0 0 0-.54.26.8.8 0 0 0-.2.57l.15 2.43a.79.79 0 0 0 .84.73ZM91.5 111.18a3.77 3.77 0 0 1-2.3-.79l-1.92-1.48a3.8 3.8 0 0 1-.69-5.31l4.54-5.88a3.79 3.79 0 0 1 5.31-.72l1.93 1.48a3.8 3.8 0 0 1 .68 5.31l-4.54 5.88a3.77 3.77 0 0 1-2.51 1.48 4.19 4.19 0 0 1-.5.03Zm2.63-11.93H94a.78.78 0 0 0-.52.3L89 105.43a.79.79 0 0 0 .14 1.11L91 108a.86.86 0 0 0 .58.16.78.78 0 0 0 .52-.3l4.57-5.86a.79.79 0 0 0-.12-1.1l-1.92-1.48a.77.77 0 0 0-.5-.17ZM55.82 117.71h-3a1.5 1.5 0 0 1 0-3h3a1.5 1.5 0 1 1 0 3ZM29.82 110.71a1.49 1.49 0 0 1-1.06-.43l-2-2a1.5 1.5 0 0 1 2.12-2.13l2 2a1.5 1.5 0 0 1-1.06 2.56ZM80.82 114.71a1.5 1.5 0 0 1-1.49-1.51 1.52 1.52 0 0 1 1-1.41l3-1a1.5 1.5 0 1 1 .94 2.85l-3 1a1.49 1.49 0 0 1-.45.07ZM96.82 93.71a1.49 1.49 0 0 1-1.06-.43l-2-2a1.5 1.5 0 1 1 2.12-2.13l2 2a1.5 1.5 0 0 1-1.06 2.56Z"/></g></svg>