<svg xmlns="http://www.w3.org/2000/svg" data-name="Capa 1" viewBox="0 0 122.7 128.5"><g data-name="Capa 2"><path class="cls-1" d="M39.2 80.1S50.4 76.7 50.7 70c-1-2-8-11.2-8-11.2ZM82.3 80s-11.2-3.4-11.5-10.1c1-2 8-11.2 8-11.2Z"/><path class="cls-1" d="m103.2 66.1 13-11-19-2 21-32-27 11v-10l-9-3 7-18-14 11-11-7-19 7-10-8 2 16-9 4 1 14-26-11 24 31-10 1 3 8-19 16 16-2s1.5-.1 5.7-7.3l9.8-13.9s-1.4-11.2-1.4-14.2 6.2-11.5 6.2-11.5-1.3-11.9 12.7-15.7c3-3 9.9-2.7 15.9-2.5S81 24.7 81.6 32c2.8 3.2 4.1 5.2 5.7 7.2 1.4 1.8 2.4 4.1 3.4 8.1S88.6 55.7 89 60l3.6 4.4s2.6 4.8 9.6 13.8l19 10Z"/><path class="cls-1" d="m35 65 10.5 3.3-2.4 15.2 8-2.6c1.6 3.2 4.5 7.9 12.4 8.2 7.6.3 12.5-5.8 12.9-7.9L87.3 85l-3.7-16.2 10.8-3.6s20.6 30.4 24.4 36.1c3.4 5.1 3.2 20.8-3.3 23-9.4 3.2-18.1-9-21.2-17.2v21h-59s1-16.2 0-20c-2.8 4.8-13 20.2-21.6 16-8-3.9-6.8-19.4-2.1-24.7S35 65 35 65Z"/><path d="M60 68.3c-3.8 0-6.7-1.9-6.7-4.5s2.9-4.5 6.7-4.5 6.7 1.9 6.7 4.5-2.9 4.5-6.7 4.5Zm0-6c-2.2 0-3.7 1-3.7 1.5s1.4 1.5 3.7 1.5 3.7-1 3.7-1.5-1.4-1.5-3.7-1.5ZM37.6 35.7a1.51 1.51 0 0 1-1.5-1.3c-.5-4.5 3.2-10.1 4.5-11.8a16.31 16.31 0 0 1 9.9-5.8 17.85 17.85 0 0 1 10.1-2.7h.2a24.8 24.8 0 0 1 17.7 7.4A20 20 0 0 1 83.9 32a1.51 1.51 0 1 1-3 .4 17.09 17.09 0 0 0-4.6-8.8 21.24 21.24 0 0 0-15.5-6.5h-.2a15.82 15.82 0 0 0-8.9 2.5c-.1.1-.3.1-.5.2a13.12 13.12 0 0 0-8.3 4.8c-1.5 1.8-4.1 6.5-3.8 9.6a1.4 1.4 0 0 1-1.3 1.6ZM38.7 81.8a1.47 1.47 0 0 1-1.5-1.5 1.42 1.42 0 0 1 .9-1.4 18.77 18.77 0 0 1 3-1.2c5-1.8 8.2-3.3 8.2-7.7v-.4a1.5 1.5 0 0 1 3 0v.4c0 6.8-5.6 8.8-10.1 10.5a21.41 21.41 0 0 0-2.8 1.2c-.3 0-.5.1-.7.1ZM82.9 82.2a1.27 1.27 0 0 1-.6-.1c-1.1-.5-2.3-1-4-1.6-4.5-1.7-10.1-3.7-10.1-10.5v-.4a1.5 1.5 0 0 1 3 0v.4c0 4.3 3.2 5.8 8.2 7.7 1.7.6 3 1.1 4.1 1.6a1.51 1.51 0 0 1 .8 2 1.46 1.46 0 0 1-1.4.9ZM60.3 58.1h-.6a1.5 1.5 0 0 1 0-3h.6a.9.9 0 0 0 .9-.9v-6.5c0-3.9 1.8-5.4 3.2-6a5 5 0 0 1 3.4-.1l2.2.6a1.49 1.49 0 0 1-.7 2.9h-.1l-2.2-.6a2 2 0 0 0-1.5 0c-.3.1-1.3.5-1.3 3.2v6.5a3.84 3.84 0 0 1-3.9 3.9Z"/><path d="M72 40h-.2a12.31 12.31 0 0 0-2-.2c-4.6-.5-11-1.3-17.5-6.8a7.56 7.56 0 0 0-5.5 2.4 1.45 1.45 0 0 1-2.1.1 1.55 1.55 0 0 1-.2-2.1 10.54 10.54 0 0 1 8.4-3.4 1.28 1.28 0 0 1 1 .4c6 5.2 11.7 5.9 16.3 6.4l2 .3A1.47 1.47 0 0 1 72 40ZM60.2 74.2c-7.4 0-15.5-6.7-17.9-14.9a1.49 1.49 0 0 1 2.8-1v.1c2.4 7.9 9.6 12.8 15 12.8 6.8 0 15.6-7.3 16.3-16.4a1.45 1.45 0 0 1 1.5-1.4h.1a1.48 1.48 0 0 1 1.4 1.6c-.8 10.8-11 19.2-19.2 19.2Z"/><circle cx="68.9" cy="47.3" r="1.5"/><circle cx="53.9" cy="47.3" r="1.5"/><path d="M59.9 86.9a14.72 14.72 0 0 1-13.6-9 1.52 1.52 0 1 1 2.8-1.2 11.79 11.79 0 0 0 22-.7 1.49 1.49 0 0 1 2.8 1 14.89 14.89 0 0 1-14 9.9ZM51.3 45a1.51 1.51 0 0 1-.4-3l3.5-.9a1.49 1.49 0 1 1 .7 2.9l-3.4 1ZM31.7 124.1a1.54 1.54 0 0 1-1.5-1.5v-18a3 3 0 0 0-.5-1.6 1.48 1.48 0 1 1 2.6-1.4 6.11 6.11 0 0 1 .8 3v18a1.34 1.34 0 0 1-1.4 1.5ZM41 65.2a.6.6 0 0 1-.4-.1 1.49 1.49 0 0 1-1.1-1.8 22.82 22.82 0 0 1 2.1-5.1 9.74 9.74 0 0 0 .5-1.1c.4-.9.1-4.2-1.2-6.8s1.2-10.7 2.7-13.6a13.75 13.75 0 0 0-.8-4.5c-.7.5-2.3 1.9-5.7 6-.6.9-4.5 8.4-4.6 9.7a49.54 49.54 0 0 0 1.1 8.5c.3 1.6.5 2.8.6 3.5a1.54 1.54 0 0 1-1.4 1.6 1.54 1.54 0 0 1-1.6-1.4c0-.5-.3-1.8-.5-3.1-.6-3.1-1.3-6.9-1.1-9.3.1-2.2 4.8-10.8 5.3-11.4 6-7.4 7.7-7.6 8.9-7.3a3.57 3.57 0 0 1 1.9 2.1c.7 1.6 1.5 5.4.7 6.9-1.8 3.4-3.2 9.8-2.7 11 1.3 2.8 2.2 7.2 1.2 9.3a7.26 7.26 0 0 0-.5 1.2 26.23 26.23 0 0 0-1.9 4.6 1.63 1.63 0 0 1-1.5 1.1Z"/><path d="M13.2 121.9a11.24 11.24 0 0 1-3.2-.4c-2.5-.7-4.5-2.7-5.7-5.8-2.4-6.2-1.4-15.7 2.2-21.2.2-.3 19-26.8 23.5-34.4a1.48 1.48 0 0 1 1.7-.7l10.6 3.3a1.55 1.55 0 0 1 1 1.7c-1.8 10.1-5.8 28.7-11.8 40.1l-.2.4c-4.9 11.1-11.2 17-18.1 17ZM32 62.6C26.6 71.4 9.7 95.2 9 96.2c-3 4.7-3.9 13.1-1.9 18.4.6 1.6 1.7 3.5 3.6 4 8.8 2.3 15-8.3 17.9-14.9a1.63 1.63 0 0 1 .3-.6c5.5-10.6 9.3-27.8 11.2-38ZM89.7 124.1a1.54 1.54 0 0 1-1.5-1.5v-18a6.11 6.11 0 0 1 .8-3 1.52 1.52 0 1 1 2.8 1.2c0 .1-.1.1-.1.2a4.28 4.28 0 0 0-.5 1.6v18a1.47 1.47 0 0 1-1.5 1.5ZM80.8 65.2a1.4 1.4 0 0 1-1.4-1.2 37.06 37.06 0 0 0-1.9-4.6l-.5-1.1c-1-2.2-.1-6.5 1.2-9.3.5-1.2-.9-7.6-2.7-11-.8-1.5 0-5.2.7-6.9a3.57 3.57 0 0 1 1.9-2.1c1.2-.4 2.9-.1 8.9 7.3.4.5 5.1 9.2 5.3 11.4.2 2.4-.5 6.2-1.1 9.2-.2 1.3-.5 2.6-.5 3.1a1.48 1.48 0 0 1-1.6 1.4 1.54 1.54 0 0 1-1.4-1.6 31.61 31.61 0 0 1 .6-3.5 49.54 49.54 0 0 0 1.1-8.5c-.1-1.3-4-8.8-4.6-9.8-3.3-4.1-5-5.5-5.7-6a11.66 11.66 0 0 0-.9 4.5c1.5 2.9 4 10.9 2.7 13.6s-1.6 5.9-1.2 6.8a9.74 9.74 0 0 0 .5 1.1 45.51 45.51 0 0 1 2.1 5.1 1.49 1.49 0 0 1-1.1 1.8c-.2.2-.3.2-.4.3Z"/><path d="M108.6 121.9c-6.9 0-13.2-5.9-18.2-17-.1-.2-.2-.3-.2-.4-5.9-11.4-9.9-30-11.8-40.1a1.55 1.55 0 0 1 1-1.7L90 59.4a1.43 1.43 0 0 1 1.7.7c4.4 7.7 23.3 34.1 23.5 34.4 3.6 5.5 4.6 15 2.2 21.2-1.2 3.2-3.2 5.2-5.7 5.8a11 11 0 0 1-3.1.4Zm-27-56.7c1.9 10.2 5.7 27.4 11.2 38 .1.1.1.3.3.6 2.9 6.6 9.1 17.2 17.9 14.9 1.9-.5 3-2.4 3.6-4 2-5.3 1.2-13.7-1.9-18.4-.7-1-17.6-24.7-23-33.5Z"/></g></svg>