<svg xmlns="http://www.w3.org/2000/svg" data-name="Capa 1" viewBox="0 0 122.15 127.75"><path class="cls-1" d="M47.61 71.31S52 82.66 64 82.38c11.38-.27 15.78-11 15.78-11l2.79 3.54C84 81 91 85.38 91 85.38l8-5 20.7 19.09c2.78 4.68 2.59 10 .13 13.33-3.79 5.06-5.33 3.08-9.28 2.46s-7.55-6.88-7.55-6.88l-11-3v22H36v-13h18l7-1 2-3.61.18-3.37 2-2.44-1-4.17c-2-3.89-4.91-4.5-8.46-3-4.22 2.9-8.56 6-10.79 5.56v11S26 114 21.16 115.11c-8.47 1.89-14.1-1.39-14.53-6.76-.32-4.71 3.28-10.65 3.28-10.65S28.75 76.13 33 74.38s14.61-3.07 14.61-3.07Z"/><path d="M41.54 40.72a5.14 5.14 0 0 1-5.12-4.58l-.08-.78a4.47 4.47 0 0 1 3.91-5 5.07 5.07 0 0 1 .55 0h.74a1.5 1.5 0 1 1 0 3h-.74a1.48 1.48 0 0 0-1.49 1.47 1 1 0 0 0 0 .17l.08.78a2.15 2.15 0 0 0 2.14 1.91 1.5 1.5 0 0 1 0 3ZM76.54 40.72a1.5 1.5 0 0 1 0-3 2.14 2.14 0 0 0 2.13-1.91l.09-.78a1.5 1.5 0 0 0-.37-1.16 1.47 1.47 0 0 0-1.11-.49h-.74a1.5 1.5 0 1 1 0-3h.74a4.49 4.49 0 0 1 4.49 4.49 4.36 4.36 0 0 1 0 .51l-.09.78a5.12 5.12 0 0 1-5.14 4.56ZM38.54 29.38a1.51 1.51 0 0 1-1.47-1.21C34.8 16.85 39 7.91 47.87 5.39a1.5 1.5 0 0 1 .82 2.89c-7.32 2.09-10.64 9.49-8.68 19.3a1.52 1.52 0 0 1-1.18 1.77ZM80.6 30.1a1.41 1.41 0 0 1-.45-.07 1.5 1.5 0 0 1-1-1.87c1.26-4 .58-7.08-.43-10.64a1.5 1.5 0 0 1 2.89-.82c1.07 3.76 1.9 7.54.4 12.35a1.5 1.5 0 0 1-1.41 1.05Z"/><path d="M58.54 61.38c-7.93 0-17.5-8.75-17.5-19.6v-12.9a1.5 1.5 0 0 1 3 0v12.9c0 8.94 8 16.6 14.5 16.6 7 0 15.5-7.41 15.5-16.6v-20.9a1.5 1.5 0 1 1 3 0v20.9c-.04 11.04-9.95 19.6-18.5 19.6Z"/><path d="M42.54 30.38h-.08A1.5 1.5 0 0 1 41 28.84c.2-3.81 2.62-11.31 10.29-12.41 2.67-.38 6.13.46 9.78 1.36 5.54 1.34 11.8 2.87 15.77.2 2.33-1.57 3.78-4.49 4.43-8.91a1.52 1.52 0 0 1 3 .43c-.78 5.31-2.65 8.9-5.73 11-5.06 3.41-12 1.72-18.15.22-3.37-.82-6.54-1.6-8.65-1.3-7.13 1-7.69 9.25-7.71 9.6a1.51 1.51 0 0 1-1.49 1.35ZM59.18 54.74c-4.13 0-7.37-2.39-7.37-5.43s3.24-5.43 7.37-5.43 7.36 2.38 7.36 5.43-3.24 5.43-7.36 5.43Zm0-7.86c-2.57 0-4.37 1.28-4.37 2.43s1.8 2.43 4.37 2.43 4.36-1.28 4.36-2.43-1.79-2.43-4.36-2.43Z"/><path d="M82.19 10.76c-3.82 0-6.24-1.59-8.79-3.27a23.45 23.45 0 0 0-9.06-4c-10.6-2.12-14 3.83-14.13 4.08a1.5 1.5 0 0 1-2.65-1.41C47.74 5.8 52-2.06 64.92.52A26.25 26.25 0 0 1 75.05 5c2.35 1.54 4.21 2.77 7.14 2.77a1.5 1.5 0 0 1 0 3ZM59.27 42.38h-.73a1.5 1.5 0 0 1 0-3h.73c.28 0 .77-.07.77-.5v-4c0-2.68.68-3.25 2.77-4.31l4.06-2a1.5 1.5 0 0 1 1.47 2.61l-.13.07-4 2a7.67 7.67 0 0 0-1.12.63 5.59 5.59 0 0 0-.05 1v4a3.53 3.53 0 0 1-3.53 3.51Z"/><circle cx="66.54" cy="33.88" r="1.5"/><path d="M53.54 33.38a1.54 1.54 0 0 1-.9-.3l-4-3a1.5 1.5 0 0 1 1.8-2.4l4 3a1.5 1.5 0 0 1 .3 2.1 1.51 1.51 0 0 1-1.2.6Z"/><circle cx="51.54" cy="33.88" r="1.5"/><path d="M47.47 86.79A1.53 1.53 0 0 1 46 85.74l-2.71-8.52a1.5 1.5 0 1 1 2.86-.91l2.71 8.52a1.51 1.51 0 0 1-1 1.89 1.78 1.78 0 0 1-.39.07ZM39.65 90.22a1.51 1.51 0 0 1-1.08-.45l-8.37-8.6a1.5 1.5 0 0 1 2.15-2.09l8.37 8.59a1.5 1.5 0 0 1 0 2.12 1.48 1.48 0 0 1-1.05.43ZM55.26 86.18H55a1.49 1.49 0 0 1-1.25-1.69l.77-4.94a1.52 1.52 0 0 1 3 .46l-.77 4.94a1.49 1.49 0 0 1-1.49 1.23ZM92.93 53a1.49 1.49 0 0 1-1.28-2.27l4.59-7.68a1.5 1.5 0 0 1 2.57 1.54l-4.59 7.68a1.51 1.51 0 0 1-1.29.73ZM99.77 58.17A1.5 1.5 0 0 1 99 55.4l10.07-6.4a1.5 1.5 0 0 1 2.09.34 1.48 1.48 0 0 1-.34 2.09.6.6 0 0 1-.13.09L100.57 58a1.48 1.48 0 0 1-.8.17ZM85.49 50.68h-.11A1.49 1.49 0 0 1 84 49.07l.38-5a1.5 1.5 0 1 1 3 .22l-.37 5a1.5 1.5 0 0 1-1.52 1.39ZM58.62 74.84a14.94 14.94 0 0 1-14.07-10 1.5 1.5 0 1 1 2.83-1 11.91 11.91 0 0 0 22.47 0 1.5 1.5 0 1 1 2.83 1 14.92 14.92 0 0 1-14.06 10Z"/><path d="M12.7 112.48a15.48 15.48 0 0 1-9.37-3.34A8.47 8.47 0 0 1 0 102.51C0 98 2.3 93 4.48 90.82c.61-.62 1.37-1.29 2.25-2.07A48.47 48.47 0 0 0 13.34 82c4-5.37 10-12.24 15.64-14.49a29.6 29.6 0 0 1 9-2 17.91 17.91 0 0 0 1.92-.22c1.9-.39 8.1-2.12 8.1-7.68v-.74a1.5 1.5 0 0 1 3 0v.74c0 6.22-5.42 9.56-10.48 10.62a17.51 17.51 0 0 1-2.28.27 26.72 26.72 0 0 0-8.19 1.76c-3.89 1.56-9 6.35-14.35 13.51a49.71 49.71 0 0 1-7 7.23c-.84.75-1.57 1.4-2.12 2C4.86 94.7 3 99 3 102.57a5.5 5.5 0 0 0 2.25 4.31 12 12 0 0 0 8.83 2.52 137.86 137.86 0 0 1 26.52-2 9 9 0 0 1 2.67.48 9 9 0 0 0 3.3.47 26.21 26.21 0 0 0 5-.46l.37-.07c.92-.19 2.45-.5 2.86-1 0-.07.06-.41.09-.61a2.39 2.39 0 0 1 .86-1.88 5.7 5.7 0 0 1 .76-.43 1.12 1.12 0 0 0 .77-.75.86.86 0 0 0-.1-.16 2.6 2.6 0 0 1-.47-1.73 2.69 2.69 0 0 1 1.48-2c.44-.27.51-.32.55-.69 0-.15 0-.19-.5-.55a3.6 3.6 0 0 1-.71-.58 1.64 1.64 0 0 1 0-2.21 1.75 1.75 0 0 0 .18-.29 2 2 0 0 0-.37-1c-1.14-1.25-5.38-1.5-6.63-.64l-1.5 1c-3.6 2.47-6 4.1-8.1 4.93a1.52 1.52 0 0 1-.6.11c-4.34-.13-10.27-1.71-15.51-3.1a54.94 54.94 0 0 0-8.5-1.9 1.5 1.5 0 1 1 .11-3c1.94.07 5.29 1 9.17 2 4.94 1.32 10.53 2.8 14.51 3a51.4 51.4 0 0 0 7.23-4.51l1.5-1c2.38-1.63 8.34-1.32 10.54 1.11a4.39 4.39 0 0 1 1 4 3.17 3.17 0 0 1 1.23 2.86 3.51 3.51 0 0 1-1.79 2.88 2.83 2.83 0 0 1 .11 2.58 4 4 0 0 1-2.19 2.27 3.94 3.94 0 0 1-.72 2.12c-1.09 1.35-3 1.75-4.6 2.07l-.35.07a28.82 28.82 0 0 1-5.48.52 12.13 12.13 0 0 1-4.27-.59 6.8 6.8 0 0 0-1.9-.36 135.45 135.45 0 0 0-25.91 1.93 10 10 0 0 1-1.99.19ZM76.3 67.88a1.31 1.31 0 0 1-.44-.07C70.25 66.09 67 62.38 67 57.62v-.74a1.5 1.5 0 1 1 3 0v.74c0 4.58 4.2 6.56 6.7 7.32a1.5 1.5 0 0 1-.44 2.94Z"/><path d="M108.21 112c-7 0-11-5.76-12.25-8.88A135.07 135.07 0 0 0 83.28 80.6a7.19 7.19 0 0 0-1.39-1.42A11.84 11.84 0 0 1 79 76a28.67 28.67 0 0 1-2.61-4.85l-.13-.33c-.6-1.48-1.36-3.33-.83-5a4.06 4.06 0 0 1 1.4-1.82 4 4 0 0 1 .68-3.07 2.81 2.81 0 0 1 2.21-1.34 3.55 3.55 0 0 1 1.4-3.09 3.18 3.18 0 0 1 3.07-.5 4.37 4.37 0 0 1 3.87-1.42c3.24.48 6.8 5.28 6.76 8.16v1.82a49.56 49.56 0 0 0 .24 8.44c3 4.06 9.63 9.89 14.07 13.77 2 1.75 3.57 3.12 4.47 4 3 3 4.45 6.74 4.48 11.69a9.36 9.36 0 0 1-9.21 9.51h-.66ZM80 62.58a1.2 1.2 0 0 0-.21 1.08 4.91 4.91 0 0 1 .07.86 2.44 2.44 0 0 1-1.09 1.77 2.56 2.56 0 0 0-.48.45c-.18.58.41 2 .77 2.9l.14.34a25.47 25.47 0 0 0 2.39 4.42 9.06 9.06 0 0 0 2.21 2.49 9.34 9.34 0 0 1 1.92 2 139.33 139.33 0 0 1 13 23.13c.14.34 2.92 7.29 9.91 7a6.41 6.41 0 0 0 6.43-6.41v-.08c0-4.11-1.17-7.16-3.6-9.59-.84-.83-2.45-2.25-4.33-3.89-4.91-4.3-11.64-10.19-14.73-14.55a1.8 1.8 0 0 1-.24-.55c-.48-2.23-.44-5.11-.38-9.48v-1.81c0-1.52-2.53-4.92-4.2-5.17a1.72 1.72 0 0 0-1.06.29 2 2 0 0 0-.1.26 1.65 1.65 0 0 1-1.86 1.19 4.39 4.39 0 0 1-.87-.27c-.58-.23-.62-.2-.73-.11-.3.24-.29.32-.27.84A2.66 2.66 0 0 1 81.9 62a2.55 2.55 0 0 1-1.7.57Z"/><path d="M86.54 122.38a1.5 1.5 0 0 1-1.5-1.5v-21a1.48 1.48 0 0 1 2-1.42l11 3.89a1.5 1.5 0 1 1-1 2.83L88 102v18.88a1.5 1.5 0 0 1-1.46 1.5ZM31.54 122.38a1.5 1.5 0 0 1-1.5-1.5v-11a1.5 1.5 0 0 1 3 0v11a1.5 1.5 0 0 1-1.5 1.5Z"/></svg>