<svg xmlns="http://www.w3.org/2000/svg" data-name="Capa 1" viewBox="0 0 115.8 116.76"><g data-name="Capa 2"><path class="cls-1" d="m44.74 65.37 8 3-1 12c5.52 3.82 11.52 3.85 18 0l-1-12 9-2 9 17c1.47-1.74 7.31 3.13 10 10 2.61 6.67 2.14 15.28 0 19-1.58 2.75-6 4-6 4h-58s-3.85.15-5-1c-7-7-6-28 6-32 4.5-4.5 11-18 11-18Z"/><path d="M57.91 68.05a17 17 0 0 1-8.32-2.46 1.5 1.5 0 0 1 1.5-2.6 14.08 14.08 0 0 0 6.82 2.06 13.75 13.75 0 0 0 6.43-1.85 1.5 1.5 0 0 1 1.44 2.64 16.85 16.85 0 0 1-7.87 2.21ZM77.06 51.91a1.6 1.6 0 0 1-.53-.09 1.49 1.49 0 0 1-.87-1.93 21.1 21.1 0 0 0 1.42-7.45l.31-7.73C74.27 33.26 64.31 28.3 58 21.17 51.7 29 41.88 33.48 38.74 34.78v7.65a20.75 20.75 0 0 0 1 6.26 1.5 1.5 0 1 1-2.86.91 23.63 23.63 0 0 1-1.14-7.17v-8.68a1.5 1.5 0 0 1 1-1.41c.14 0 13.34-5 20-14.45a1.54 1.54 0 0 1 1.19-.64 1.53 1.53 0 0 1 1.22.58c6.69 8.6 20.28 14.49 20.41 14.54a1.5 1.5 0 0 1 .91 1.44l-.35 8.68a24.2 24.2 0 0 1-1.62 8.45 1.52 1.52 0 0 1-1.44.97Z"/><path d="M90.77 78a1.57 1.57 0 0 1-.64-.14 1.51 1.51 0 0 1-.72-2 9.73 9.73 0 0 0 .07-7.67 11.1 11.1 0 0 0-6.2-6.19 1.48 1.48 0 0 1-.92-1.09 1.46 1.46 0 0 1 .4-1.36 9.48 9.48 0 0 0 2.62-8.25 20 20 0 0 0-1.19-3.63A25.83 25.83 0 0 1 83 44.09a19.62 19.62 0 0 1 .1-9.09 24.7 24.7 0 0 0 .49-8.31c-.3-2.5-1.83-11.09-8.77-16.21-4.24-3.13-9.61-4.23-16-3.27a1.55 1.55 0 0 1-.73.18h-.53a1.55 1.55 0 0 1-.73-.18c-6.37-1-11.74.14-16 3.27-6.94 5.12-8.47 13.71-8.78 16.21a24.58 24.58 0 0 0 .5 8.33 19.75 19.75 0 0 1 .11 9.11 29.09 29.09 0 0 1-1.21 3.51 20.06 20.06 0 0 0-1.2 3.63 9.48 9.48 0 0 0 2.62 8.25 1.46 1.46 0 0 1 .4 1.36 1.48 1.48 0 0 1-.92 1.12 11.11 11.11 0 0 0-6.19 6.23 9.65 9.65 0 0 0 .07 7.67 1.5 1.5 0 1 1-2.72 1.28 12.7 12.7 0 0 1-.14-10.06 14.24 14.24 0 0 1 6.06-7 12.44 12.44 0 0 1-2.13-9.35 22.93 22.93 0 0 1 1.36-4.18 24.33 24.33 0 0 0 1.08-3.11 16.67 16.67 0 0 0-.14-7.85 28 28 0 0 1-.52-9.21c.34-2.82 2.07-12.44 10-18.27 5-3.72 11.34-5 18.77-3.74 7.42-1.24 13.73 0 18.76 3.74 7.91 5.83 9.63 15.45 10 18.27a27.73 27.73 0 0 1-.61 9.12 16.63 16.63 0 0 0-.14 7.84A24.63 24.63 0 0 0 87 46.49a22.93 22.93 0 0 1 1.36 4.18A12.44 12.44 0 0 1 86.21 60a14.22 14.22 0 0 1 6.05 7 12.7 12.7 0 0 1-.14 10.06 1.47 1.47 0 0 1-1.35.94Z"/><path d="M26.66 112.54a7.75 7.75 0 0 1-1.79-.21c-4.3-1.08-5-6.69-5.66-12.63-.14-1.18-.28-2.4-.46-3.61-1.09-7.65 4.3-16.3 12.82-20.56a1.5 1.5 0 1 1 1.34 2.69c-7.28 3.64-12.09 11.14-11.19 17.44.18 1.24.33 2.48.47 3.69.57 4.88 1.12 9.5 3.41 10.07 4.28 1.07 12.5-4 16.19-15.94l7.53-32a1.38 1.38 0 0 1 .15-.4c2.46-4.34 6.35-12.11 6.35-14.52 0-4.13-1.63-11.72-2.94-12.65a13.86 13.86 0 0 0-4.31 2.82c-1.78 1.78-2.81 11.42-2.83 13.1a1.51 1.51 0 0 1-1.5 1.5 1.51 1.51 0 0 1-1.49-1.5c0-.11.63-12.14 3.71-15.22C47.54 33.52 51 30.9 53 30.9c5.24 0 5.86 15.51 5.86 15.66 0 3.82-5.58 13.94-6.63 15.81L44.7 94.22v.1c-3.88 12.52-12.34 18.22-18.04 18.22Z"/><path d="M28.24 89.37a1.57 1.57 0 0 1-.64-.14 1.49 1.49 0 0 1-.72-2l13.51-28.66-1.85-3.71c-1-2-2-8.27.1-11.32a4.51 4.51 0 0 1 3.85-1.93A4 4 0 0 1 45.8 44a1.5 1.5 0 0 1-2.69 1.34c-.35-.7-.7-.73-.82-.73a1.47 1.47 0 0 0-1.17.62c-1.22 1.8-.58 6.93.1 8.29l2.18 4.36a1.51 1.51 0 0 1 0 1.31L29.59 88.51a1.47 1.47 0 0 1-1.35.86ZM88.77 112.54c-5.7 0-14.16-5.7-18-18.22v-.1l-7.53-31.85c-1.05-1.87-6.63-12-6.63-15.81 0-.15.62-15.66 5.86-15.66 2 0 5.42 2.61 6.51 3.71 3.08 3.08 3.71 15.11 3.71 15.22a1.5 1.5 0 0 1-3 0c0-1.69-1-11.32-2.83-13.1a14 14 0 0 0-4.31-2.82c-1.32.94-2.94 8.52-2.94 12.65 0 2.44 3.89 10.18 6.39 14.52a1.38 1.38 0 0 1 .15.4l7.53 32c3.69 12 11.91 17 16.19 15.94 2.29-.57 2.84-5.19 3.41-10.07.14-1.21.29-2.45.47-3.69.9-6.3-3.91-13.8-11.19-17.44a1.5 1.5 0 0 1 1.34-2.69c8.52 4.26 13.91 12.91 12.82 20.56-.18 1.21-.32 2.43-.46 3.61-.7 5.94-1.36 11.55-5.66 12.63a7 7 0 0 1-1.83.21Z"/><path d="M87.19 89.37a1.47 1.47 0 0 1-1.35-.86L72 59.19a1.51 1.51 0 0 1 0-1.31l2.18-4.36c.68-1.36 1.32-6.49.1-8.29a1.44 1.44 0 0 0-1.17-.62c-.12 0-.47 0-.82.73A1.5 1.5 0 0 1 69.63 44a4 4 0 0 1 3.31-2.39 4.49 4.49 0 0 1 3.85 1.93c2.06 3.05 1.08 9.36.1 11.32L75 58.57l13.55 28.67a1.51 1.51 0 0 1-.71 2 1.41 1.41 0 0 1-.65.13ZM106.24 113.37h-101a1.5 1.5 0 1 1 0-3h101a1.5 1.5 0 1 1 0 3Z"/><g class="cls-2"><path class="cls-3" d="M94.6 38.93a1.55 1.55 0 0 1-.91-.3 1.5 1.5 0 0 1-.29-2.1l7.38-9.75-5.24-1.07a1.54 1.54 0 0 1-1.11-1 1.49 1.49 0 0 1 .23-1.44l5.94-7.55a1.49 1.49 0 0 1 2.09-.27 1.51 1.51 0 0 1 .26 2.11l-4.44 5.65 5.2 1.06a1.5 1.5 0 0 1 1.1.94 1.52 1.52 0 0 1-.21 1.44l-8.81 11.69a1.49 1.49 0 0 1-1.19.59Z"/></g><g class="cls-2"><path class="cls-3" d="M23.51 39.7a1.52 1.52 0 0 1-1-.36l-11.1-9.45a1.49 1.49 0 0 1-.17-2.11 1.58 1.58 0 0 1 .53-.4l4.84-2.17-5.55-4.55A1.51 1.51 0 0 1 13 18.34l7.43 6.09a1.5 1.5 0 0 1 .24 2.11 1.58 1.58 0 0 1-.62.46l-4.88 2.18 9.31 7.92a1.5 1.5 0 0 1-1 2.64Z"/></g><g class="cls-2"><path class="cls-3" d="M21 57.33a1.41 1.41 0 0 1-.29 0L6.4 54.45a1.52 1.52 0 0 1-1.11-.93 1.55 1.55 0 0 1 .2-1.44l3.18-4.25-7.06-1.27a1.52 1.52 0 0 1 .53-3l9.46 1.7a1.53 1.53 0 0 1 1.13.93 1.51 1.51 0 0 1-.2 1.45L9.32 52l12 2.39a1.51 1.51 0 0 1-.29 3Z"/></g><g class="cls-2"><path class="cls-3" d="M95 57.68a1.51 1.51 0 0 1-.45-2.94L107 50.89l-3.93-4.26a1.51 1.51 0 0 1 .08-2.12 1.48 1.48 0 0 1 .61-.34l9.74-2.82a1.5 1.5 0 0 1 .84 2.88l-7.42 2.15 3.9 4.22a1.5 1.5 0 0 1 .35 1.4 1.48 1.48 0 0 1-1 1l-14.75 4.61a2 2 0 0 1-.42.07Z"/></g><g class="cls-2"><path class="cls-3" d="M24.24 10.37a1.47 1.47 0 0 1-1.17-.56l-4-5a1.5 1.5 0 0 1 2.24-2 1.47 1.47 0 0 1 .1.13l4 5a1.49 1.49 0 0 1-1.17 2.43Z"/></g><g class="cls-2"><path class="cls-3" d="M87.24 7.37a1.46 1.46 0 0 1-.9-.3A1.49 1.49 0 0 1 86 5l3-4a1.52 1.52 0 0 1 2.11-.3 1.51 1.51 0 0 1 .29 2.11l-3 4a1.49 1.49 0 0 1-1.16.56Z"/></g></g></svg>