<svg xmlns="http://www.w3.org/2000/svg" data-name="Capa 1" viewBox="0 0 128.38 124.95"><path d="M30.69 69a5.23 5.23 0 0 1-.56 0 5.67 5.67 0 0 1-2.8-2.14l-.9-.51a5.93 5.93 0 0 1-1.88-.08c-1.48-.28-1.36-1.74-1.24-3.15a11.79 11.79 0 0 0 .07-2.12l-.17-.25a17.72 17.72 0 0 1-1.21-2 1.5 1.5 0 0 1 2.59-1.52l.06.12a17.78 17.78 0 0 0 1 1.6l.26.38c.58.85.53 2.11.38 3.93a1.64 1.64 0 0 1 1.11.14l1.66.93a1.44 1.44 0 0 1 .5.45A4.84 4.84 0 0 0 30.75 66a3.73 3.73 0 0 0 2.51-2.32 1.53 1.53 0 1 1 3 .56 6.16 6.16 0 0 1-2.8 3.76 5.41 5.41 0 0 1-2.77 1Z"/><path d="m36.86 61.84-4.06-.1a1.49 1.49 0 0 1-1.15-.59 1.46 1.46 0 0 1-.27-1.26 3.21 3.21 0 0 0-.51-2.48 2.74 2.74 0 0 0-.7.41 1.52 1.52 0 0 1-2 0 7.79 7.79 0 0 0-1.1-.89c-2.44 2.12-4.93 2.62-6.92 1.33a1.48 1.48 0 0 1-.68-1.08 1.5 1.5 0 0 1 .4-1.21 11.76 11.76 0 0 0 .87-1.87c.17-.45.35-.9.54-1.3s2.18-4.8 6-5.8a8.38 8.38 0 0 1 8.48 3c2.84 3.24 4 8.54 2.35 11.12a1.5 1.5 0 0 1-1.25.72Zm-2.48-3.06h1.44A9.44 9.44 0 0 0 33.53 52c-2-2.32-4.11-2.39-5.48-2-2 .52-3.56 2.87-4.09 4-.17.37-.33.77-.49 1.18q-.12.32-.24.6A7.4 7.4 0 0 0 25.7 54a1.5 1.5 0 0 1 1.69-.31h.12a8.45 8.45 0 0 1 1.76 1.05 3 3 0 0 1 3.59.37 5.42 5.42 0 0 1 1.52 3.67Z"/><path class="cls-1" d="m69.67 109.55-5.24-2.78c-.56 2-.8 6.34-.91 9.79l6.15 3.49L128 95.55v-8.17Z"/><path d="M63.17 119.55a1.47 1.47 0 0 1-.74-.2l-5.24-3a1.5 1.5 0 1 1 1.48-2.61l4.6 2.61L120 92.55v-5L63.7 109a1.47 1.47 0 0 1-1.23-.08l-5.12-2.71a1.5 1.5 0 0 1 1.4-2.65l4.52 2.44L121 84a1.49 1.49 0 0 1 1.91.91 1.37 1.37 0 0 1 .09.49v8.17a1.51 1.51 0 0 1-.91 1.38l-58.34 24.5a1.42 1.42 0 0 1-.58.1ZM17 93.36a1.48 1.48 0 0 1-.74-.19L.76 84.35a1.48 1.48 0 0 1-.76-1.3v-8.17a1.51 1.51 0 0 1 1.53-1.49 1.46 1.46 0 0 1 .68.17L19.94 83a1.5 1.5 0 0 1-1.4 2.65L3 77.37v4.81l14.78 8.38a1.5 1.5 0 0 1-.74 2.8Z"/><path d="M4.5 91A1.5 1.5 0 0 1 3 89.5v-4a1.5 1.5 0 0 1 3 0v4A1.5 1.5 0 0 1 4.55 91ZM66.5 125a1.5 1.5 0 0 1-1.5-1.5v-5a1.5 1.5 0 0 1 3 0v5a1.5 1.5 0 0 1-1.5 1.5ZM118.5 101a1.5 1.5 0 0 1-1.5-1.5v-4a1.5 1.5 0 0 1 3 0v4a1.5 1.5 0 0 1-1.5 1.5ZM121.71 86.89a1.46 1.46 0 0 1-.55-.11L114.22 84a1.5 1.5 0 1 1 1.11-2.79l6.94 2.79a1.5 1.5 0 0 1 .86 1.94 1.48 1.48 0 0 1-1.42 1ZM1.5 77A1.5 1.5 0 0 1 0 75.5V56.4C-.19 46.58 5.74 39.85 16.29 38l16.87-3.3a1.53 1.53 0 0 1 .58 3L16.83 41C7.74 42.54 2.84 48 3 56.37v19.08A1.5 1.5 0 0 1 1.55 77Z"/><path d="M21.93 75.32a1.51 1.51 0 0 1-1.35-.83A16 16 0 0 0 7.05 65.4a1.5 1.5 0 0 1-.59-2.88l2.65-1.15c2.83-1.24 5.49-2.41 7.94-3.26A1.52 1.52 0 0 1 18 61c-1.83.63-3.82 1.47-5.93 2.38a19 19 0 0 1 11.17 9.81 1.5 1.5 0 0 1-.67 2 1.56 1.56 0 0 1-.64.13Z"/><path d="M22.92 79.28h-.25A27.93 27.93 0 0 1 11.07 74C5 69.15 5.54 64 5.56 63.73a1.51 1.51 0 0 1 3 .33c0 .19-.26 3.86 4.41 7.59a25.37 25.37 0 0 0 10.19 4.65 1.5 1.5 0 0 1-.24 3Z"/><path class="cls-1" d="M70.47 64.66a17.05 17.05 0 0 0-13.17.47 4.71 4.71 0 0 1-.71.27c-2 .6-4.62-.79-9.26-.46a29.63 29.63 0 0 1 4 5.8c1 2-3 13-3 13-3.09 1.24-4.67.46-5-2 0 0 2-9.13 2-10 0-.7-5-2-6.86-4.31-6.9 4-6.6 13.3-9.83 15.46-3.5 2.33-8.56 1.38-10.11 2.44-1.35.92-1.61 9.27-1.65 11.42a.83.83 0 0 0 .43.75l38.19 22a.87.87 0 0 0 1.17-.33.8.8 0 0 0 .11-.4c0-3.21.21-10.78 1-13.24.44-1.3 6.62-3.7 12.52-5.81 2.7-1 1.86-2.9 5-4 2-.72 4.64.48 8.73-.69 5.11-1.45 8-3.88 10.53-4.77 8.44-2.92 16.87-5.76 20.79-7.07a.85.85 0 0 0 .51-1.09.83.83 0 0 0-.51-.51Z"/><path d="M77.8 89.74a1.44 1.44 0 0 1-.67-.16l-.5-.24a29.65 29.65 0 0 1-9.9-7 26.66 26.66 0 0 1-3.11-4.14c-1.68-2.6-3.42-5.2-6.18-6.48A1.5 1.5 0 0 1 58.67 69c3.55 1.59 5.63 4.75 7.46 7.53a23.3 23.3 0 0 0 2.73 3.67A26.72 26.72 0 0 0 78 86.65l.5.25a1.5 1.5 0 0 1-.67 2.84ZM49.34 81.91a2.29 2.29 0 0 1-.37 0c-5.33-1.33-5.33-3-5.33-3.55a11 11 0 0 1 .55-2.53 20.71 20.71 0 0 0 .88-4.12c-.32-.24-.91-.59-1.57-1a65.96 65.96 0 0 1-3.54-2.19 3.83 3.83 0 0 1-1.63-5.07 5.14 5.14 0 0 1 5.94-2.6c2.6.86 9.72 4.62 9.72 9.09C54 73.3 51.05 80.25 50.71 81a1.49 1.49 0 0 1-1.37.91Zm-2.61-4a10.8 10.8 0 0 0 1.73.7c1-2.49 2.53-6.73 2.53-8.68s-4.64-5.24-7.67-6.25A2.18 2.18 0 0 0 41 64.74c-.1.21-.32.64.6 1.25 1.38.93 2.5 1.58 3.39 2.11a11.59 11.59 0 0 1 2.34 1.58c1.21 1.21.7 3.42-.28 6.91a12.35 12.35 0 0 1-.32 1.3Zm-1.49-6.11Z"/><path d="M45.8 85.74a3.09 3.09 0 0 1-2.8-1.3c-1.2-1.75-.16-4.4.33-5.68a1.54 1.54 0 0 1 2-.88 1.47 1.47 0 0 1 .87 1.89c-.8 2.07-.76 2.73-.69 2.94h.3a2.15 2.15 0 0 0 1.2-.17 2.73 2.73 0 0 0 .14-.63 6.52 6.52 0 0 1 .31-1.23 1.5 1.5 0 1 1 2.85.93l-.06.16a4.75 4.75 0 0 0-.14.63c-.24 1.1-.61 3.34-4.31 3.34Z"/><path class="cls-2" d="M70.75 50.94H52.66v-6.58h14.8A3.11 3.11 0 0 0 70.75 47Z"/><path d="M71.9 57H48.82a3 3 0 0 1-3-3V9.5a3 3 0 0 1 3-3h24.73a.83.83 0 0 1 0 1.65H48.82a1.32 1.32 0 0 0-1.32 1.32V54a1.32 1.32 0 0 0 1.32 1.32H71.9a.82.82 0 1 1 0 1.64Z"/><path d="M63.68 23.53H51.07a.84.84 0 0 1-.83-.82v-7.13a.82.82 0 0 1 .82-.82h16.45a.82.82 0 1 1 0 1.64H51.89v5.48h11.79a.83.83 0 0 1 0 1.65ZM63.68 36.14H51.07a.84.84 0 0 1-.83-.82v-7.13a.82.82 0 0 1 .82-.82h12.07a.82.82 0 1 1 0 1.64H51.89v5.48h11.79a.83.83 0 0 1 0 1.65ZM66.42 48.75H51.07a.84.84 0 0 1-.83-.82V40.8a.84.84 0 0 1 .83-.82h12.06a.82.82 0 1 1 0 1.64H51.89v5.49h14.53a.82.82 0 1 1 0 1.64Z"/><path class="cls-2" d="M53.26 37.41h18.09v-6.58h-14.8a3.12 3.12 0 0 1-3.29 2.64Z"/><path d="M50.52 57h23.07a3 3 0 0 0 3-3V9.5a3 3 0 0 0-3-3H48.87a.83.83 0 0 0 0 1.65h24.72a1.34 1.34 0 0 1 1.33 1.33V54a1.33 1.33 0 0 1-1.33 1.32H50.52a.82.82 0 1 0 0 1.64Z"/><path d="M54.08 7.35v-6a.82.82 0 0 1 .79-.85h12.64a.84.84 0 0 1 .83.82v6a.83.83 0 0 1-.83.83H54.9a.84.84 0 0 1-.82-.8Zm12.61-5.21h-11v4.39h11ZM58.74 23.53h12.61a.82.82 0 0 0 .82-.82v-7.13a.81.81 0 0 0-.8-.82H54.9a.82.82 0 0 0 0 1.64h15.63v5.48H58.74a.83.83 0 0 0 0 1.65ZM58.74 36.14h12.61a.82.82 0 0 0 .82-.82v-7.13a.81.81 0 0 0-.8-.82H59.29a.82.82 0 1 0 0 1.64h11.24v5.48H58.74a.83.83 0 0 0 0 1.65ZM56 48.75h15.35a.82.82 0 0 0 .82-.82V40.8a.82.82 0 0 0-.82-.82H59.29a.82.82 0 1 0 0 1.64h11.24v5.49H56a.82.82 0 0 0 0 1.64Z"/></svg>