<svg xmlns="http://www.w3.org/2000/svg" data-name="Capa 1" viewBox="0 0 122 122.7"><g data-name="Capa 2"><path class="cls-1" d="m36 72.65 7.87 2.11-2.11 10L49 82.65c1.27 2.59 3.62 6.73 10 7 6.1.25 11.69-5.27 12-7l7 2-2-9 8-3s17 26.41 20 31c2.7 4.09 2.24 15.2-3 17-7.61 2.61-14.44-8.38-17-15v15H36l-.5-15.1c-2.26 3.83-10.64 18.45-17.5 15.1-6.48-3.17-3.54-15.92-1-21 4-8 19-27 19-27ZM97.59 21.86a9.08 9.08 0 0 0-1.8.18 17.32 17.32 0 0 0-34.11.58c-1.13-.49-4.68-2-6.68-1a8.41 8.41 0 0 0-4.62 5.73 11.55 11.55 0 0 1 8.31 3.49 12.25 12.25 0 0 1 1.43 1.78h46.77a10.69 10.69 0 0 0 .11-1.38 9.41 9.41 0 0 0-9.41-9.38Z"/><path d="M120.5 122.65H1.5a1.5 1.5 0 0 1 0-3h119a1.5 1.5 0 0 1 0 3ZM63.5 72.65a1.44 1.44 0 0 1-.46-.08 9.84 9.84 0 0 0-6.07 0 1.51 1.51 0 1 1-1-2.85 12.79 12.79 0 0 1 7.93 0 1.5 1.5 0 0 1-.46 2.93ZM60.39 67.65h-.89a1.5 1.5 0 0 1 0-3h.89A.61.61 0 0 0 61 64v-5.65c0-4.08 2.18-5.27 3.48-5.61a4.36 4.36 0 0 1 2.37.19L67 53h.12l1.9.73a1.5 1.5 0 0 1-1 2.82l-2-.74a2.8 2.8 0 0 0-.76-.17c-.33.09-1.24.33-1.24 2.71V64a3.62 3.62 0 0 1-3.57 3.65ZM51.5 56.65a1.5 1.5 0 0 1-.5-2.93l3-1a1.51 1.51 0 0 1 1 2.85l-3 1a1.69 1.69 0 0 1-.5.08Z"/><circle cx="54.5" cy="59.15" r="1.5"/><circle cx="67.5" cy="59.15" r="1.5"/><path d="M68 50.05h-.18c-4.57-.56-9.47-1.48-14.67-5.81-1.56.26-3.55 1.65-5.57 3.92a1.5 1.5 0 0 1-2.24-2c2-2.26 5.1-5 8.31-5a1.48 1.48 0 0 1 1 .37c4.75 4.13 9.3 5 13.55 5.5A1.5 1.5 0 0 1 68 50ZM60.08 80.25c-6.29 0-12.95-5.22-15.49-12.15a1.5 1.5 0 0 1 2.82-1c2.33 6.37 8.28 10.18 12.67 10.18s9.84-3.7 12.42-8.61a1.49 1.49 0 0 1 2.08-.4 1.5 1.5 0 0 1 .58 1.73C72 76 65.71 80.25 60.08 80.25Z"/><path d="M43.52 76a2.41 2.41 0 0 1-.38 0 1.5 1.5 0 0 1-1.07-1.83 26.56 26.56 0 0 1 1.76-4.28l.42-.9c.27-.6.06-3.22-1-5.37-1.15-2.41 1-9.1 2.24-11.44a9 9 0 0 0-.49-3.33 32.71 32.71 0 0 0-4.38 4.73c-.55.82-3.6 6.8-3.75 7.9a37.66 37.66 0 0 0 .88 6.93c.25 1.35.43 2.31.47 2.9a1.51 1.51 0 0 1-1.41 1.58 1.48 1.48 0 0 1-1.59-1.36 24.43 24.43 0 0 0-.41-2.53 37 37 0 0 1-.93-7.71c.13-1.93 4.06-9.13 4.41-9.56 5.06-6.23 6.5-6.44 7.65-6.1a3 3 0 0 1 1.74 1.89c.55 1.32 1.32 4.51.58 5.91-1.42 2.57-2.63 7.81-2.26 8.83 1.12 2.34 1.82 6 1 7.89l-.44.94A25.57 25.57 0 0 0 45 74.84 1.5 1.5 0 0 1 43.52 76ZM43.49 85.87A1.5 1.5 0 0 1 43 83c4.25-1.56 7-2.86 7-6.53v-.28a1.5 1.5 0 0 1 3 0v.28c0 6-5.2 8-9 9.35a1.77 1.77 0 0 1-.51.05ZM76.51 85.87a1.54 1.54 0 0 1-.52-.09c-3.79-1.4-9-3.31-9-9.35v-.28a1.5 1.5 0 0 1 3 0v.28c0 3.67 2.78 5 7 6.53a1.5 1.5 0 0 1-.52 2.91Z"/><path d="M59.84 91.34a13.13 13.13 0 0 1-12.06-8A1.5 1.5 0 0 1 50.45 82a1.67 1.67 0 0 1 .08.2 10.14 10.14 0 0 0 18.87-.63 1.5 1.5 0 1 1 2.83 1 13.15 13.15 0 0 1-12.39 8.77ZM35.5 121.65a1.5 1.5 0 0 1-1.5-1.5v-13a1.5 1.5 0 0 1 3 0v13a1.5 1.5 0 0 1-1.5 1.5Z"/><path d="M19.56 122.7a8.18 8.18 0 0 1-1.21-.06 5.83 5.83 0 0 1-4.62-3.23c-2.36-4.29-1.74-12.61 1.43-18.93 2.41-4.83 7.37-11.93 11.75-18.2 3-4.27 5.8-8.3 7.3-10.89a1.5 1.5 0 0 1 1.79-.68l8.71 2.7a1.5 1.5 0 0 1 1 1.71c-1.52 8.33-4.81 23.73-9.74 33.2l-.11.25c-4.28 9.16-10.02 14.13-16.3 14.13Zm16.63-48.78C34.55 76.57 32 80.19 29.37 84c-4.32 6.18-9.22 13.19-11.53 17.82-2.68 5.35-3.35 12.74-1.48 16.14a2.9 2.9 0 0 0 2.29 1.7c7.27.71 12.18-7.43 14.46-12.36l.17-.35c4.51-8.67 7.64-22.68 9.22-31.07ZM76.3 76a1.51 1.51 0 0 1-1.45-1.12 25.57 25.57 0 0 0-1.56-3.75c-.17-.35-.32-.67-.44-.94-.84-1.85-.14-5.55 1-7.91.36-1-.85-6.21-2.24-8.85-.74-1.4 0-4.59.58-5.91a3 3 0 0 1 1.73-1.89c1.15-.34 2.6-.12 7.65 6.1.48.58 4.29 7.71 4.41 9.56a37 37 0 0 1-.93 7.71c-.2 1.09-.4 2.13-.42 2.52a1.46 1.46 0 0 1-1.52 1.41h-.06a1.5 1.5 0 0 1-1.41-1.58 28.66 28.66 0 0 1 .46-2.9 37.48 37.48 0 0 0 .9-7c-.15-1.08-3.2-7.06-3.79-7.93a32.07 32.07 0 0 0-4.34-4.68 9.43 9.43 0 0 0-.55 3.24c1.2 2.34 3.4 9 2.24 11.44a10.24 10.24 0 0 0-1 5.38c.11.25.26.56.42.89a27.86 27.86 0 0 1 1.75 4.28 1.5 1.5 0 0 1-1.07 1.83 2.37 2.37 0 0 1-.36.1Z"/><path d="M100.27 122.7c-6.28 0-12-5-16.28-14.13l-.12-.26c-4.87-9.46-8.22-24.86-9.74-33.19a1.51 1.51 0 0 1 1-1.71l8.71-2.7a1.53 1.53 0 0 1 1.75.68C87.11 74 89.93 78 92.91 82.27c4.38 6.27 9.34 13.38 11.76 18.21 3.16 6.32 3.79 14.64 1.42 18.93a5.83 5.83 0 0 1-4.62 3.23q-.6.06-1.2.06Zm-23-46.82c1.59 8.39 4.71 22.4 9.22 31.06l.17.37c2.29 4.92 7.22 13.06 14.46 12.35a2.93 2.93 0 0 0 2.3-1.7c1.87-3.4 1.19-10.79-1.49-16.14-2.26-4.63-7.16-11.64-11.48-17.82-2.66-3.8-5.18-7.42-6.81-10.07Z"/><path d="M84.5 121.65a1.5 1.5 0 0 1-1.5-1.5v-13a1.5 1.5 0 0 1 3 0v13a1.5 1.5 0 0 1-1.5 1.5ZM100.89 27.65H54.5a1.5 1.5 0 0 1 0-3h45a7.87 7.87 0 0 0-8-7.8 7.33 7.33 0 0 0-1.47.15 1.45 1.45 0 0 1-1.03-.22 1.51 1.51 0 0 1-.64-1 15.81 15.81 0 0 0-31.15.53 1.49 1.49 0 0 1-1.71 1.25 1.36 1.36 0 0 1-.36-.1 7.84 7.84 0 0 0-3.14-.6c-2.6 0-5.59 1.8-6 3.63a1.54 1.54 0 1 1-3-.69c.83-3.5 5.38-5.94 8.94-5.94a10.57 10.57 0 0 1 2.57.31 18.82 18.82 0 0 1 36.39-.29 10.91 10.91 0 0 1 11.58 10.2v.69a10.68 10.68 0 0 1-.13 1.6 1.5 1.5 0 0 1-1.46 1.28ZM51.51 34.66c-31.11 0-31.11 0-31.49-.26a1.5 1.5 0 0 1-.67-1.23 13.39 13.39 0 0 1 23.72-8.68 8.63 8.63 0 0 1 9.83 7.23 8.08 8.08 0 0 1 .1 1.47 1.51 1.51 0 0 1-1.49 1.47Zm-29.07-3h27.41A5.63 5.63 0 0 0 43 27.55l-.18.05a1.51 1.51 0 0 1-1.62-.6 10.39 10.39 0 0 0-18.79 4.6ZM79.5 37.65a1.5 1.5 0 0 1-1.5-1.5v-3a1.5 1.5 0 0 1 3 0v3a1.5 1.5 0 0 1-1.5 1.5ZM99.5 37.65a1.5 1.5 0 0 1-1.5-1.5v-3a1.5 1.5 0 0 1 3 0v3a1.5 1.5 0 0 1-1.5 1.5ZM89.5 54.65a1.5 1.5 0 0 1-1.5-1.5v-3a1.5 1.5 0 0 1 3 0v3a1.5 1.5 0 0 1-1.5 1.5ZM89.5 43.65a1.5 1.5 0 0 1-1.5-1.5v-10a1.5 1.5 0 0 1 3 0v10a1.5 1.5 0 0 1-1.5 1.5ZM59.5 37.65a1.5 1.5 0 0 1-1.5-1.5v-3a1.5 1.5 0 0 1 3 0v3a1.5 1.5 0 0 1-1.5 1.5ZM69.5 43.65a1.5 1.5 0 0 1-1.5-1.5v-10a1.5 1.5 0 0 1 3 0v10a1.5 1.5 0 0 1-1.5 1.5Z"/></g></svg>